PathFileType	4	(X/Y/Z)	/Users/itak/Documents/Research/Walk-IL/dataset/trc/00074_00006.trc
DataRate	CameraRate	NumFrames	NumMarkers	Units	OrigDataRate	OrigDataStartFrame	OrigNumFrames
100.000000	100.000000	4	53	mm	100.000000	628	718
Frame#	Time	RPSI			LPSI			L3			STRN			T10			C7			CLAV			RBAK			LBAK			LSHO			LUPA			LAEL			LAOL			LWTS			LWPS			LFRA			LIFD			LHPS			LHTS			RSHO			RUPA			RAEL			RAOL			RWTS			RWPS			RFRA			RIFD			RHTS			RHPS			RBHD			LFHD			RFHD			LBHD			LHIP			RHIP			RASI			LASI			LKNE			LTHI			LANK			LTIP			LTOE			LMT1			LMT5			LHEE			RKNE			RTHI			RANK			RTIP			RTOE			RMT1			RMT5			RHEE			
		X1	Y1	Z1	X2	Y2	Z2	X3	Y3	Z3	X4	Y4	Z4	X5	Y5	Z5	X6	Y6	Z6	X7	Y7	Z7	X8	Y8	Z8	X9	Y9	Z9	X10	Y10	Z10	X11	Y11	Z11	X12	Y12	Z12	X13	Y13	Z13	X14	Y14	Z14	X15	Y15	Z15	X16	Y16	Z16	X17	Y17	Z17	X18	Y18	Z18	X19	Y19	Z19	X20	Y20	Z20	X21	Y21	Z21	X22	Y22	Z22	X23	Y23	Z23	X24	Y24	Z24	X25	Y25	Z25	X26	Y26	Z26	X27	Y27	Z27	X28	Y28	Z28	X29	Y29	Z29	X30	Y30	Z30	X31	Y31	Z31	X32	Y32	Z32	X33	Y33	Z33	X34	Y34	Z34	X35	Y35	Z35	X36	Y36	Z36	X37	Y37	Z37	X38	Y38	Z38	X39	Y39	Z39	X40	Y40	Z40	X41	Y41	Z41	X42	Y42	Z42	X43	Y43	Z43	X44	Y44	Z44	X45	Y45	Z45	X46	Y46	Z46	X47	Y47	Z47	X48	Y48	Z48	X49	Y49	Z49	X50	Y50	Z50	X51	Y51	Z51	X52	Y52	Z52	X53	Y53	Z53	

629	6.28	488.7719421386719	1032.939331054688	942.71484375	563.9649658203125	1020.992980957031	1099.949096679688	526.7731323242188	1084.582153320312	1028.615478515625	297.3932800292969	1291.342651367188	1122.9638671875	546.4132080078125	1218.153076171875	1025.445556640625	496.5960083007812	1486.363159179688	1040.767333984375	327.1523132324219	1405.66357421875	1108.690551757812	525.0595703125	1344.550903320312	953.4465942382812	554.2022705078125	1451.020874023438	1126.327758789062	487.50927734375	1463.770263671875	1231.2080078125	531.2227172851562	1341.0751953125	1304.5517578125	513.6353149414062	1131.130126953125	1350.178466796875	533.2872314453125	1104.799560546875	1248.68408203125	379.6734924316406	903.6074829101562	1356.247924804688	457.8429870605469	886.8256225585938	1384.2041015625	488.7209167480469	1025.733154296875	1376.36181640625	339.3470764160156	721.0443115234375	1366.044189453125	418.0924682617188	812.2291870117188	1403.641845703125	352.3010864257812	826.0465698242188	1378.501342773438	373.8333129882812	1447.841552734375	902.9453735351562	362.2059936523438	1377.599243164062	842.9385986328125	373.0421447753906	1115.370361328125	801.4822387695312	381.8516235351562	1092.68798828125	898.0765991210938	213.6446228027344	887.6936645507812	893.4379272460938	263.5504150390625	861.0307006835938	827.0995483398438	349.5327758789062	1034.2041015625	799.5402221679688	197.6501312255859	697.8291625976562	926.4536743164062	184.0848388671875	785.0892333984375	908.5328369140625	223.9463195800781	775.7876586914062	843.29296875	478.2961730957031	1673.360107421875	1112.43896484375	288.3943481445312	1698.266357421875	1013.528564453125	307.3135681152344	1718.75927734375	1136.478393554688	448.8437194824219	1645.125244140625	981.2864990234375	501.5992431640625	959.0241088867188	1223.836059570312	395.1218872070312	965.6536254882812	894.4791870117188	289.8251037597656	986.6637573242188	962.3948974609375	379.0622253417969	973.269775390625	1214.898681640625	341.4281616210938	509.3251953125	1205.838134765625	407.7340698242188	641.6614990234375	1230.206787109375	436.3070068359375	49.41845703125	1194.616088867188	390.9181213378906	263.7254943847656	1211.233642578125	230.2658996582031	43.67839813232422	1230.730834960938	268.9679870605469	42.22910690307617	1170.726196289062	343.9654846191406	41.80917358398438	1254.605224609375	467.8670043945312	45.62387084960938	1108.308715820312	264.5989685058594	527.1768188476562	950.0906982421875	295.4096984863281	797.78564453125	923.547119140625	511.5491943359375	119.7085037231445	815.182373046875	313.9052124023438	414.2552795410156	912.35986328125	341.6843872070312	68.60041809082031	932.1929931640625	411.0340881347656	79.81456756591797	945.42138671875	396.9953918457031	89.81024932861328	848.874755859375	575.5453491210938	133.1885681152344	849.0403442382812	
630	6.29	486.8932189941406	1033.525756835938	945.3941040039062	561.2420654296875	1021.328369140625	1102.942138671875	524.4393920898438	1085.084228515625	1031.642456054688	294.4078369140625	1291.703491210938	1124.903930664062	544.0988159179688	1218.598388671875	1028.944091796875	494.0827331542969	1486.8271484375	1044.058715820312	324.1277160644531	1406.0439453125	1110.80517578125	523.18017578125	1345.027709960938	956.936767578125	551.0770874023438	1451.488037109375	1130.05078125	483.5768737792969	1464.155151367188	1234.444946289062	526.5530395507812	1341.410888671875	1308.148681640625	508.1857299804688	1131.41796875	1353.533203125	528.832763671875	1105.123657226562	1252.247802734375	373.8064880371094	904.0860595703125	1358.126831054688	451.6891174316406	887.1607666015625	1386.858276367188	482.8221740722656	1026.0361328125	1379.405395507812	333.2117614746094	721.6089477539062	1367.434448242188	411.5608520507812	812.5105590820312	1405.791625976562	346.1901550292969	826.5896606445312	1380.093383789062	372.2025146484375	1448.205444335938	905.3917236328125	361.066650390625	1377.951538085938	845.3141479492188	372.3907775878906	1115.776123046875	803.8213500976562	380.4861450195312	1093.06494140625	900.466064453125	212.3852081298828	887.960693359375	894.3558349609375	262.8512573242188	861.3375854492188	828.4369506835938	348.9511108398438	1034.594970703125	801.65869140625	196.2801513671875	698.0703735351562	927.1553344726562	182.7990417480469	785.270751953125	909.1806030273438	223.1612701416016	776.0506591796875	844.2139892578125	475.2499389648438	1673.778564453125	1115.1689453125	285.5912780761719	1698.618041992188	1015.772033691406	304.1406555175781	1719.057861328125	1138.769775390625	446.144775390625	1645.575439453125	983.9259033203125	498.4181518554688	959.1871337890625	1226.5	393.3376159667969	966.398193359375	896.7448120117188	287.7110290527344	987.3984375	964.1261596679688	375.9880065917969	973.42041015625	1217.02099609375	340.3341674804688	509.0137329101562	1206.617309570312	405.7605895996094	641.6521606445312	1231.515258789062	436.2812194824219	49.50969696044922	1194.537353515625	390.4324645996094	263.5811157226562	1211.560668945312	230.2589263916016	43.69819259643555	1230.680053710938	268.9369201660156	42.15783309936523	1170.668334960938	343.9317016601562	41.87007522583008	1254.508666992188	467.8183898925781	45.67743682861328	1108.253173828125	261.3309020996094	528.1829833984375	951.5371704101562	292.9925231933594	798.850341796875	924.9298095703125	498.3218383789062	112.7478561401367	823.2085571289062	308.6964111328125	413.79736328125	915.1375732421875	325.3227844238281	69.01085662841797	938.597900390625	394.8298950195312	77.71858978271484	952.5973510742188	382.5355529785156	87.38771820068359	855.8602294921875	562.406005859375	124.1976852416992	857.6617431640625	
631	6.3	484.9719848632812	1034.100219726562	947.9747924804688	558.54736328125	1021.659973144531	1105.82421875	522.1143798828125	1085.554931640625	1034.54931640625	291.4417724609375	1292.050170898438	1126.730834960938	541.8304443359375	1219.007690429688	1032.330200195312	491.6109619140625	1487.261108398438	1047.244018554688	321.1571655273438	1406.398803710938	1112.838134765625	521.33251953125	1345.470092773438	960.3129272460938	548.0032348632812	1451.917602539062	1133.651733398438	479.7110900878906	1464.4951171875	1237.563842773438	521.9646606445312	1341.703857421875	1311.605224609375	502.8179321289062	1131.661376953125	1356.743041992188	524.4985961914062	1105.414306640625	1255.678344726562	368.0322570800781	904.5123291015625	1359.761962890625	445.6252746582031	887.4458618164062	1389.308349609375	477.0053405761719	1026.289184570312	1382.276977539062	327.1629333496094	722.12451171875	1368.510375976562	405.0783081054688	812.7118530273438	1407.692138671875	340.1591796875	827.02294921875	1381.3623046875	370.6009826660156	1448.543823242188	907.7544555664062	359.9124450683594	1378.285034179688	847.609375	371.7349243164062	1116.159912109375	806.0618286132812	379.1687622070312	1093.39990234375	902.752197265625	211.2105865478516	888.167236328125	895.206298828125	262.200439453125	861.6034545898438	829.6710205078125	348.3603820800781	1034.968505859375	803.6793212890625	194.9844207763672	698.2445678710938	927.7036743164062	181.6584625244141	785.363525390625	909.7531127929688	222.4308166503906	776.2642822265625	845.0277709960938	472.2705078125	1674.175537109375	1117.79638671875	282.8451538085938	1698.949829101562	1017.939819335938	301.0303344726562	1719.322265625	1140.978515625	443.4876403808594	1646.007446289062	986.4678955078125	495.2721252441406	959.351806640625	1229.05712890625	391.546875	967.123291015625	898.9178466796875	285.5713500976562	988.1139526367188	965.7666015625	372.9473266601562	973.5540161132812	1219.017944335938	339.2263488769531	508.7103576660156	1207.356811523438	403.766845703125	641.6570434570312	1232.776977539062	436.2649230957031	49.58902359008789	1194.466430664062	389.9561767578125	263.4339904785156	1211.87548828125	230.2482757568359	43.71478271484375	1230.630249023438	268.90478515625	42.10231781005859	1170.616455078125	343.9037170410156	41.92069244384766	1254.427368164062	467.7802429199219	45.72824859619141	1108.213745117188	258.4439697265625	529.0730590820312	952.854248046875	290.6902770996094	799.882080078125	926.210205078125	484.7819213867188	105.7849960327148	831.0973510742188	303.7738952636719	413.3305969238281	917.7543334960938	309.1415100097656	69.58693695068359	945.0675048828125	378.710693359375	75.84323883056641	959.7409057617188	367.9721984863281	84.95050048828125	862.8240966796875	548.8917236328125	115.2957382202148	866.0819702148438	
632	6.31	483.0149230957031	1034.664428710938	950.4470825195312	555.8833618164062	1021.98779296875	1108.584106445312	519.8027954101562	1085.994262695312	1037.32080078125	288.5035095214844	1292.382690429688	1128.448486328125	539.6048583984375	1219.378173828125	1035.5908203125	489.1745300292969	1487.6611328125	1050.318481445312	318.2456970214844	1406.725952148438	1114.786254882812	519.5089721679688	1345.876342773438	963.5687255859375	544.9857788085938	1452.308471679688	1137.12744140625	475.9151000976562	1464.793090820312	1240.560668945312	517.4617309570312	1341.954223632812	1314.916381835938	497.5343322753906	1131.862670898438	1359.80126953125	520.2757568359375	1105.6728515625	1258.969116210938	362.36865234375	904.890380859375	1361.166137695312	439.6634521484375	887.6829223632812	1391.552856445312	471.2788696289062	1026.494750976562	1384.973876953125	321.1980895996094	722.587890625	1369.290893554688	398.6604309082031	812.8477783203125	1409.348388671875	334.2063903808594	827.3544311523438	1382.3232421875	369.0320129394531	1448.859252929688	910.0333251953125	358.7487182617188	1378.609619140625	849.8177490234375	371.0700378417969	1116.52685546875	808.205810546875	377.896484375	1093.700561523438	904.936279296875	210.1289367675781	888.3168334960938	896.003173828125	261.5972900390625	861.8364868164062	830.8095703125	347.7569885253906	1035.3310546875	805.6054077148438	193.7896423339844	698.345458984375	928.1185913085938	180.6419830322266	785.3865356445312	910.253662109375	221.7501525878906	776.4376831054688	845.7438354492188	469.3517456054688	1674.550537109375	1120.324340820312	280.1531677246094	1699.257568359375	1020.030883789062	297.9846801757812	1719.551025390625	1143.105712890625	440.8709411621094	1646.421142578125	988.9147338867188	492.1768798828125	959.5155639648438	1231.499145507812	389.7344970703125	967.8255615234375	900.9993286132812	283.4206237792969	988.8028564453125	967.3397216796875	369.9365539550781	973.678466796875	1220.890991210938	338.0841979980469	508.4136047363281	1208.063354492188	401.7528381347656	641.66748046875	1233.992431640625	436.2528686523438	49.66162490844727	1194.400390625	389.4787292480469	263.2849731445312	1212.177124023438	230.2330474853516	43.72651672363281	1230.585815429688	268.8665466308594	42.05944061279297	1170.5673828125	343.8789978027344	41.96255874633789	1254.359252929688	467.7462463378906	45.77851867675781	1108.18603515625	255.9510498046875	529.8440551757812	954.068603515625	288.5056762695312	800.8832397460938	927.37939453125	471.0366821289062	98.96131134033203	838.8075561523438	299.1481018066406	412.8768005371094	920.22607421875	293.1960144042969	70.34535980224609	951.4671020507812	362.7301025390625	74.20583343505859	966.7590942382812	353.3909301757812	82.61441802978516	869.6657104492188	535.1124877929688	106.5946426391602	874.2890014648438	
